<?xml version="1.0" encoding="UTF-8"?>
<svg xmlns="http://www.w3.org/2000/svg" viewBox="0 -292 3519 1276" width="400" height="145">
  <g transform="scale(1,-1) translate(0,-984)">
    <path d="M86,0 L86,700 L211,700 L423,38 L435,38 L647,700 L772,700 L772,0 L710,0 L710,662 L698,662 L486,0 L372,0 L160,662 L148,662 L148,0 Z M1170,-14 Q1095,-14 1039.5,17.5 Q984,49 953.0,106.0 Q922,163 922,237 L922,249 Q922,324 953.0,380.5 Q984,437 1038.5,468.5 Q1093,500 1163,500 Q1231,500 1283.5,471.5 Q1336,443 1366.0,389.5 Q1396,336 1396,262 L1396,230 L982,230 Q985,139 1037.5,89.5 Q1090,40 1170,40 Q1238,40 1275.5,71.0 Q1313,102 1333,147 L1387,123 Q1372,90 1345.5,58.5 Q1319,27 1277.0,6.5 Q1235,-14 1170,-14 Z M983,282 L1335,282 Q1331,361 1284.0,403.5 Q1237,446 1163,446 Q1090,446 1042.0,403.5 Q994,361 983,282 Z M1720,0 Q1681,0 1661.5,20.0 Q1642,40 1642,76 L1642,432 L1486,432 L1486,486 L1642,486 L1642,668 L1702,668 L1702,486 L1872,486 L1872,432 L1702,432 L1702,84 Q1702,54 1732,54 L1846,54 L1846,0 Z M2006,0 L2006,486 L2064,486 L2064,425 L2076,425 Q2090,458 2117.5,473.0 Q2145,488 2194,488 L2251,488 L2251,432 L2187,432 Q2132,432 2099.0,401.0 Q2066,370 2066,304 L2066,0 Z M2597,-14 Q2523,-14 2467.5,17.5 Q2412,49 2381.5,105.5 Q2351,162 2351,237 L2351,249 Q2351,324 2381.5,380.5 Q2412,437 2467.5,468.5 Q2523,500 2597,500 Q2671,500 2726.5,468.5 Q2782,437 2812.5,380.5 Q2843,324 2843,249 L2843,237 Q2843,162 2812.5,105.5 Q2782,49 2726.5,17.5 Q2671,-14 2597,-14 Z M2597,40 Q2683,40 2733.0,94.5 Q2783,149 2783,239 L2783,247 Q2783,337 2733.0,391.5 Q2683,446 2597,446 Q2512,446 2461.5,391.5 Q2411,337 2411,247 L2411,239 Q2411,149 2461.5,94.5 Q2512,40 2597,40 Z M2995,0 L2995,486 L3053,486 L3053,396 L3065,396 Q3083,435 3124.0,465.5 Q3165,496 3243,496 Q3296,496 3340.0,474.0 Q3384,452 3410.5,407.5 Q3437,363 3437,296 L3437,0 L3377,0 L3377,292 Q3377,372 3337.0,407.0 Q3297,442 3230,442 Q3155,442 3105.0,392.5 Q3055,343 3055,243 L3055,0 Z" fill="#F58A0B"/>
  </g>
</svg>